<mxfile host="65bd71144e">
    <diagram id="WFcMovoW3or-hlUv4va0" name="Страница 1">
        <mxGraphModel dx="1945" dy="613" grid="1" gridSize="10" guides="1" tooltips="1" connect="1" arrows="1" fold="1" page="1" pageScale="1" pageWidth="827" pageHeight="1169" math="0" shadow="0">
            <root>
                <mxCell id="0"/>
                <mxCell id="1" parent="0"/>
                <mxCell id="12" style="edgeStyle=none;html=1;entryX=0.5;entryY=0;entryDx=0;entryDy=0;" edge="1" parent="1" source="2" target="7">
                    <mxGeometry relative="1" as="geometry"/>
                </mxCell>
                <mxCell id="2" value="Start" style="ellipse;whiteSpace=wrap;html=1;" vertex="1" parent="1">
                    <mxGeometry x="70" y="30" width="100" height="50" as="geometry"/>
                </mxCell>
                <mxCell id="3" value="Stop" style="ellipse;whiteSpace=wrap;html=1;" vertex="1" parent="1">
                    <mxGeometry x="70" y="510" width="100" height="50" as="geometry"/>
                </mxCell>
                <mxCell id="6" value="Создание нового массива" style="text;html=1;align=center;verticalAlign=middle;resizable=0;points=[];autosize=1;strokeColor=none;fillColor=none;" vertex="1" parent="1">
                    <mxGeometry x="40" width="160" height="20" as="geometry"/>
                </mxCell>
                <mxCell id="13" style="edgeStyle=none;html=1;entryX=0.5;entryY=0;entryDx=0;entryDy=0;" edge="1" parent="1" source="7" target="8">
                    <mxGeometry relative="1" as="geometry"/>
                </mxCell>
                <mxCell id="7" value="arrey[]&lt;br&gt;int counter = 0" style="rounded=0;whiteSpace=wrap;html=1;" vertex="1" parent="1">
                    <mxGeometry x="60" y="120" width="120" height="40" as="geometry"/>
                </mxCell>
                <mxCell id="14" style="edgeStyle=none;html=1;entryX=0.5;entryY=0;entryDx=0;entryDy=0;" edge="1" parent="1" source="8" target="10">
                    <mxGeometry relative="1" as="geometry"/>
                </mxCell>
                <mxCell id="23" style="edgeStyle=none;html=1;entryX=1;entryY=0.5;entryDx=0;entryDy=0;exitX=1;exitY=0.5;exitDx=0;exitDy=0;" edge="1" parent="1" source="8" target="21">
                    <mxGeometry relative="1" as="geometry">
                        <Array as="points">
                            <mxPoint x="280" y="210"/>
                            <mxPoint x="280" y="465"/>
                        </Array>
                    </mxGeometry>
                </mxCell>
                <mxCell id="8" value="&lt;span lang=&quot;EN-US&quot; style=&quot;font-size: 10.5pt ; line-height: 107% ; font-family: &amp;#34;consolas&amp;#34; ; color: #569cd6&quot;&gt;int&lt;/span&gt;&lt;span lang=&quot;EN-US&quot; style=&quot;font-size: 10.5pt ; line-height: 107% ; font-family: &amp;#34;consolas&amp;#34; ; color: #d4d4d4&quot;&gt; &lt;/span&gt;&lt;span lang=&quot;EN-US&quot; style=&quot;font-size: 10.5pt ; line-height: 107% ; font-family: &amp;#34;consolas&amp;#34; ; color: #9cdcfe&quot;&gt;i&lt;/span&gt;&lt;span lang=&quot;EN-US&quot; style=&quot;font-size: 10.5pt ; line-height: 107% ; font-family: &amp;#34;consolas&amp;#34; ; color: #d4d4d4&quot;&gt; = &lt;/span&gt;&lt;span lang=&quot;EN-US&quot; style=&quot;font-size: 10.5pt ; line-height: 107% ; font-family: &amp;#34;consolas&amp;#34; ; color: #b5cea8&quot;&gt;0&lt;/span&gt;&lt;span lang=&quot;EN-US&quot; style=&quot;font-size: 10.5pt ; line-height: 107% ; font-family: &amp;#34;consolas&amp;#34; ; color: #d4d4d4&quot;&gt;; &lt;/span&gt;&lt;span lang=&quot;EN-US&quot; style=&quot;font-size: 10.5pt ; line-height: 107% ; font-family: &amp;#34;consolas&amp;#34; ; color: #9cdcfe&quot;&gt;i&lt;/span&gt;&lt;span lang=&quot;EN-US&quot; style=&quot;font-size: 10.5pt ; line-height: 107% ; font-family: &amp;#34;consolas&amp;#34; ; color: #d4d4d4&quot;&gt; &amp;lt; &lt;/span&gt;&lt;span lang=&quot;EN-US&quot; style=&quot;font-size: 10.5pt ; line-height: 107% ; font-family: &amp;#34;consolas&amp;#34; ; color: #9cdcfe&quot;&gt;array&lt;/span&gt;&lt;span lang=&quot;EN-US&quot; style=&quot;font-size: 10.5pt ; line-height: 107% ; font-family: &amp;#34;consolas&amp;#34; ; color: #d4d4d4&quot;&gt;.&lt;/span&gt;&lt;span lang=&quot;EN-US&quot; style=&quot;font-size: 10.5pt ; line-height: 107% ; font-family: &amp;#34;consolas&amp;#34; ; color: #9cdcfe&quot;&gt;Length&lt;/span&gt;&lt;span lang=&quot;EN-US&quot; style=&quot;font-size: 10.5pt ; line-height: 107% ; font-family: &amp;#34;consolas&amp;#34; ; color: #d4d4d4&quot;&gt;; &lt;/span&gt;&lt;span lang=&quot;EN-US&quot; style=&quot;font-size: 10.5pt ; line-height: 107% ; font-family: &amp;#34;consolas&amp;#34; ; color: #9cdcfe&quot;&gt;i&lt;/span&gt;&lt;span lang=&quot;EN-US&quot; style=&quot;font-size: 10.5pt ; line-height: 107% ; font-family: &amp;#34;consolas&amp;#34; ; color: #d4d4d4&quot;&gt;++&lt;/span&gt;" style="shape=hexagon;perimeter=hexagonPerimeter2;whiteSpace=wrap;html=1;fixedSize=1;" vertex="1" parent="1">
                    <mxGeometry x="-15" y="190" width="270" height="40" as="geometry"/>
                </mxCell>
                <mxCell id="15" style="edgeStyle=none;html=1;" edge="1" parent="1" source="10" target="11">
                    <mxGeometry relative="1" as="geometry"/>
                </mxCell>
                <mxCell id="19" style="edgeStyle=none;html=1;entryX=0;entryY=0.25;entryDx=0;entryDy=0;" edge="1" parent="1" source="10" target="8">
                    <mxGeometry relative="1" as="geometry">
                        <Array as="points">
                            <mxPoint x="240" y="290"/>
                            <mxPoint x="240" y="420"/>
                            <mxPoint x="90" y="420"/>
                            <mxPoint x="-60" y="420"/>
                            <mxPoint x="-60" y="201"/>
                        </Array>
                    </mxGeometry>
                </mxCell>
                <mxCell id="10" value="&lt;span lang=&quot;EN-US&quot; style=&quot;font-size: 10.5pt ; line-height: 107% ; font-family: &amp;#34;consolas&amp;#34; ; color: #9cdcfe&quot;&gt;array&lt;/span&gt;&lt;span lang=&quot;EN-US&quot; style=&quot;font-size: 10.5pt ; line-height: 107% ; font-family: &amp;#34;consolas&amp;#34; ; color: #d4d4d4&quot;&gt;[&lt;/span&gt;&lt;span lang=&quot;EN-US&quot; style=&quot;font-size: 10.5pt ; line-height: 107% ; font-family: &amp;#34;consolas&amp;#34; ; color: #9cdcfe&quot;&gt;i&lt;/span&gt;&lt;span lang=&quot;EN-US&quot; style=&quot;font-size: 10.5pt ; line-height: 107% ; font-family: &amp;#34;consolas&amp;#34; ; color: #d4d4d4&quot;&gt;].&lt;/span&gt;&lt;span lang=&quot;EN-US&quot; style=&quot;font-size: 10.5pt ; line-height: 107% ; font-family: &amp;#34;consolas&amp;#34; ; color: #9cdcfe&quot;&gt;Length&lt;/span&gt;&lt;span lang=&quot;EN-US&quot; style=&quot;font-size: 10.5pt ; line-height: 107% ; font-family: &amp;#34;consolas&amp;#34; ; color: #d4d4d4&quot;&gt; &amp;lt;= &lt;/span&gt;&lt;span lang=&quot;EN-US&quot; style=&quot;font-size: 10.5pt ; line-height: 107% ; font-family: &amp;#34;consolas&amp;#34; ; color: #b5cea8&quot;&gt;3&lt;/span&gt;" style="rhombus;whiteSpace=wrap;html=1;" vertex="1" parent="1">
                    <mxGeometry x="15" y="260" width="210" height="60" as="geometry"/>
                </mxCell>
                <mxCell id="18" style="edgeStyle=none;html=1;entryX=0;entryY=0.75;entryDx=0;entryDy=0;" edge="1" parent="1" source="11" target="8">
                    <mxGeometry relative="1" as="geometry">
                        <Array as="points">
                            <mxPoint x="-40" y="370"/>
                            <mxPoint x="-40" y="300"/>
                            <mxPoint x="-40" y="219"/>
                        </Array>
                    </mxGeometry>
                </mxCell>
                <mxCell id="11" value="counter++" style="rounded=0;whiteSpace=wrap;html=1;" vertex="1" parent="1">
                    <mxGeometry x="60" y="350" width="120" height="40" as="geometry"/>
                </mxCell>
                <mxCell id="16" value="True" style="text;html=1;align=center;verticalAlign=middle;resizable=0;points=[];autosize=1;strokeColor=none;fillColor=none;" vertex="1" parent="1">
                    <mxGeometry x="120" y="240" width="40" height="20" as="geometry"/>
                </mxCell>
                <mxCell id="17" value="True" style="text;html=1;align=center;verticalAlign=middle;resizable=0;points=[];autosize=1;strokeColor=none;fillColor=none;" vertex="1" parent="1">
                    <mxGeometry x="120" y="330" width="40" height="20" as="geometry"/>
                </mxCell>
                <mxCell id="24" style="edgeStyle=none;html=1;" edge="1" parent="1" source="21" target="3">
                    <mxGeometry relative="1" as="geometry"/>
                </mxCell>
                <mxCell id="21" value="newArrey [] = new [counter]" style="rounded=0;whiteSpace=wrap;html=1;" vertex="1" parent="1">
                    <mxGeometry x="35" y="450" width="170" height="30" as="geometry"/>
                </mxCell>
                <mxCell id="25" value="False" style="text;html=1;align=center;verticalAlign=middle;resizable=0;points=[];autosize=1;strokeColor=none;fillColor=none;" vertex="1" parent="1">
                    <mxGeometry x="280" y="300" width="40" height="20" as="geometry"/>
                </mxCell>
                <mxCell id="26" value="False" style="text;html=1;align=center;verticalAlign=middle;resizable=0;points=[];autosize=1;strokeColor=none;fillColor=none;" vertex="1" parent="1">
                    <mxGeometry x="240" y="340" width="40" height="20" as="geometry"/>
                </mxCell>
                <mxCell id="27" value="Заполнение нового массива" style="text;html=1;align=center;verticalAlign=middle;resizable=0;points=[];autosize=1;strokeColor=none;fillColor=none;" vertex="1" parent="1">
                    <mxGeometry x="465" width="170" height="20" as="geometry"/>
                </mxCell>
                <mxCell id="34" style="edgeStyle=none;html=1;entryX=0.5;entryY=0;entryDx=0;entryDy=0;" edge="1" parent="1" source="28" target="30">
                    <mxGeometry relative="1" as="geometry"/>
                </mxCell>
                <mxCell id="28" value="arrey[]&lt;br&gt;newArrey[]&lt;br&gt;int counter = 0" style="rounded=0;whiteSpace=wrap;html=1;" vertex="1" parent="1">
                    <mxGeometry x="490" y="115" width="120" height="50" as="geometry"/>
                </mxCell>
                <mxCell id="33" style="edgeStyle=none;html=1;entryX=0.5;entryY=0;entryDx=0;entryDy=0;" edge="1" parent="1" source="29" target="28">
                    <mxGeometry relative="1" as="geometry"/>
                </mxCell>
                <mxCell id="29" value="Start" style="ellipse;whiteSpace=wrap;html=1;" vertex="1" parent="1">
                    <mxGeometry x="500" y="30" width="100" height="50" as="geometry"/>
                </mxCell>
                <mxCell id="35" style="edgeStyle=none;html=1;entryX=0.5;entryY=0;entryDx=0;entryDy=0;" edge="1" parent="1" source="30" target="31">
                    <mxGeometry relative="1" as="geometry"/>
                </mxCell>
                <mxCell id="42" style="edgeStyle=none;html=1;entryX=1;entryY=0.5;entryDx=0;entryDy=0;exitX=1;exitY=0.5;exitDx=0;exitDy=0;" edge="1" parent="1" source="30" target="41">
                    <mxGeometry relative="1" as="geometry">
                        <Array as="points">
                            <mxPoint x="730" y="210"/>
                            <mxPoint x="730" y="350"/>
                            <mxPoint x="730" y="475"/>
                        </Array>
                    </mxGeometry>
                </mxCell>
                <mxCell id="30" value="&lt;span lang=&quot;EN-US&quot; style=&quot;font-size: 10.5pt ; line-height: 107% ; font-family: &amp;#34;consolas&amp;#34; ; color: #569cd6&quot;&gt;int&lt;/span&gt;&lt;span lang=&quot;EN-US&quot; style=&quot;font-size: 10.5pt ; line-height: 107% ; font-family: &amp;#34;consolas&amp;#34; ; color: #d4d4d4&quot;&gt; &lt;/span&gt;&lt;span lang=&quot;EN-US&quot; style=&quot;font-size: 10.5pt ; line-height: 107% ; font-family: &amp;#34;consolas&amp;#34; ; color: #9cdcfe&quot;&gt;i&lt;/span&gt;&lt;span lang=&quot;EN-US&quot; style=&quot;font-size: 10.5pt ; line-height: 107% ; font-family: &amp;#34;consolas&amp;#34; ; color: #d4d4d4&quot;&gt; = &lt;/span&gt;&lt;span lang=&quot;EN-US&quot; style=&quot;font-size: 10.5pt ; line-height: 107% ; font-family: &amp;#34;consolas&amp;#34; ; color: #b5cea8&quot;&gt;0&lt;/span&gt;&lt;span lang=&quot;EN-US&quot; style=&quot;font-size: 10.5pt ; line-height: 107% ; font-family: &amp;#34;consolas&amp;#34; ; color: #d4d4d4&quot;&gt;; &lt;/span&gt;&lt;span lang=&quot;EN-US&quot; style=&quot;font-size: 10.5pt ; line-height: 107% ; font-family: &amp;#34;consolas&amp;#34; ; color: #9cdcfe&quot;&gt;i&lt;/span&gt;&lt;span lang=&quot;EN-US&quot; style=&quot;font-size: 10.5pt ; line-height: 107% ; font-family: &amp;#34;consolas&amp;#34; ; color: #d4d4d4&quot;&gt; &amp;lt; &lt;/span&gt;&lt;span lang=&quot;EN-US&quot; style=&quot;font-size: 10.5pt ; line-height: 107% ; font-family: &amp;#34;consolas&amp;#34; ; color: #9cdcfe&quot;&gt;array&lt;/span&gt;&lt;span lang=&quot;EN-US&quot; style=&quot;font-size: 10.5pt ; line-height: 107% ; font-family: &amp;#34;consolas&amp;#34; ; color: #d4d4d4&quot;&gt;.&lt;/span&gt;&lt;span lang=&quot;EN-US&quot; style=&quot;font-size: 10.5pt ; line-height: 107% ; font-family: &amp;#34;consolas&amp;#34; ; color: #9cdcfe&quot;&gt;Length&lt;/span&gt;&lt;span lang=&quot;EN-US&quot; style=&quot;font-size: 10.5pt ; line-height: 107% ; font-family: &amp;#34;consolas&amp;#34; ; color: #d4d4d4&quot;&gt;; &lt;/span&gt;&lt;span lang=&quot;EN-US&quot; style=&quot;font-size: 10.5pt ; line-height: 107% ; font-family: &amp;#34;consolas&amp;#34; ; color: #9cdcfe&quot;&gt;i&lt;/span&gt;&lt;span lang=&quot;EN-US&quot; style=&quot;font-size: 10.5pt ; line-height: 107% ; font-family: &amp;#34;consolas&amp;#34; ; color: #d4d4d4&quot;&gt;++&lt;/span&gt;" style="shape=hexagon;perimeter=hexagonPerimeter2;whiteSpace=wrap;html=1;fixedSize=1;" vertex="1" parent="1">
                    <mxGeometry x="415" y="190" width="270" height="40" as="geometry"/>
                </mxCell>
                <mxCell id="36" style="edgeStyle=none;html=1;entryX=0.5;entryY=0;entryDx=0;entryDy=0;" edge="1" parent="1" source="31" target="32">
                    <mxGeometry relative="1" as="geometry"/>
                </mxCell>
                <mxCell id="40" style="edgeStyle=none;html=1;entryX=0;entryY=0.25;entryDx=0;entryDy=0;" edge="1" parent="1" source="31" target="30">
                    <mxGeometry relative="1" as="geometry">
                        <Array as="points">
                            <mxPoint x="680" y="290"/>
                            <mxPoint x="680" y="360"/>
                            <mxPoint x="680" y="420"/>
                            <mxPoint x="500" y="420"/>
                            <mxPoint x="380" y="420"/>
                            <mxPoint x="380" y="201"/>
                        </Array>
                    </mxGeometry>
                </mxCell>
                <mxCell id="31" value="&lt;span lang=&quot;EN-US&quot; style=&quot;font-size: 10.5pt ; line-height: 107% ; font-family: &amp;#34;consolas&amp;#34; ; color: #9cdcfe&quot;&gt;array&lt;/span&gt;&lt;span lang=&quot;EN-US&quot; style=&quot;font-size: 10.5pt ; line-height: 107% ; font-family: &amp;#34;consolas&amp;#34; ; color: #d4d4d4&quot;&gt;[&lt;/span&gt;&lt;span lang=&quot;EN-US&quot; style=&quot;font-size: 10.5pt ; line-height: 107% ; font-family: &amp;#34;consolas&amp;#34; ; color: #9cdcfe&quot;&gt;i&lt;/span&gt;&lt;span lang=&quot;EN-US&quot; style=&quot;font-size: 10.5pt ; line-height: 107% ; font-family: &amp;#34;consolas&amp;#34; ; color: #d4d4d4&quot;&gt;].&lt;/span&gt;&lt;span lang=&quot;EN-US&quot; style=&quot;font-size: 10.5pt ; line-height: 107% ; font-family: &amp;#34;consolas&amp;#34; ; color: #9cdcfe&quot;&gt;Length&lt;/span&gt;&lt;span lang=&quot;EN-US&quot; style=&quot;font-size: 10.5pt ; line-height: 107% ; font-family: &amp;#34;consolas&amp;#34; ; color: #d4d4d4&quot;&gt; &amp;lt;= &lt;/span&gt;&lt;span lang=&quot;EN-US&quot; style=&quot;font-size: 10.5pt ; line-height: 107% ; font-family: &amp;#34;consolas&amp;#34; ; color: #b5cea8&quot;&gt;3&lt;/span&gt;" style="rhombus;whiteSpace=wrap;html=1;" vertex="1" parent="1">
                    <mxGeometry x="445" y="260" width="210" height="60" as="geometry"/>
                </mxCell>
                <mxCell id="39" style="edgeStyle=none;html=1;entryX=0;entryY=0.75;entryDx=0;entryDy=0;" edge="1" parent="1" source="32" target="30">
                    <mxGeometry relative="1" as="geometry">
                        <Array as="points">
                            <mxPoint x="424" y="370"/>
                            <mxPoint x="410" y="370"/>
                            <mxPoint x="410" y="300"/>
                            <mxPoint x="410" y="219"/>
                        </Array>
                    </mxGeometry>
                </mxCell>
                <mxCell id="32" value="newArrey[counter] = arrey[i]&lt;br&gt;counter++" style="rounded=0;whiteSpace=wrap;html=1;" vertex="1" parent="1">
                    <mxGeometry x="457.5" y="350" width="185" height="40" as="geometry"/>
                </mxCell>
                <mxCell id="37" value="True" style="text;html=1;align=center;verticalAlign=middle;resizable=0;points=[];autosize=1;strokeColor=none;fillColor=none;" vertex="1" parent="1">
                    <mxGeometry x="550" y="240" width="40" height="20" as="geometry"/>
                </mxCell>
                <mxCell id="38" value="True" style="text;html=1;align=center;verticalAlign=middle;resizable=0;points=[];autosize=1;strokeColor=none;fillColor=none;" vertex="1" parent="1">
                    <mxGeometry x="550" y="330" width="40" height="20" as="geometry"/>
                </mxCell>
                <mxCell id="41" value="Stop" style="ellipse;whiteSpace=wrap;html=1;" vertex="1" parent="1">
                    <mxGeometry x="500" y="450" width="100" height="50" as="geometry"/>
                </mxCell>
                <mxCell id="43" value="False" style="text;html=1;align=center;verticalAlign=middle;resizable=0;points=[];autosize=1;strokeColor=none;fillColor=none;" vertex="1" parent="1">
                    <mxGeometry x="680" y="340" width="40" height="20" as="geometry"/>
                </mxCell>
                <mxCell id="44" value="False" style="text;html=1;align=center;verticalAlign=middle;resizable=0;points=[];autosize=1;strokeColor=none;fillColor=none;" vertex="1" parent="1">
                    <mxGeometry x="730" y="300" width="40" height="20" as="geometry"/>
                </mxCell>
            </root>
        </mxGraphModel>
    </diagram>
</mxfile>